<svg width="32" height="14" viewBox="0 0 32 14" fill="none" xmlns="http://www.w3.org/2000/svg">
<rect width="32" height="32" rx="16" fill="#F9F9F9"/>
<g clip-path="url(#clip0)">
<path d="M29 16.3691C29 21.5478 23.1752 25.7383 15.9912 25.7383C8.82485 25.72 3 21.5295 3 16.3691C3 11.1905 8.82485 7 16.0088 7C23.1751 7 29 11.1905 29 16.3691Z" fill="#262F76"/>
<path d="M28.3822 15.6921C28.3822 20.3034 22.8221 24.0365 15.9559 24.0365C9.08962 24.0365 3.52954 20.3034 3.52954 15.6921C3.52954 11.0807 9.08962 7.34766 15.9559 7.34766C22.8221 7.34766 28.3822 11.0807 28.3822 15.6921Z" fill="#FBDF00"/>
<path d="M28.541 15.2163L28.5233 15.0333C28.3292 13.3132 27.376 11.7028 25.7874 10.3487L25.6815 10.2572L25.558 10.3304C23.3516 11.5931 20.9687 11.6479 18.4975 10.4951C15.1085 8.92138 13.4317 10.7513 13.3611 10.8245L12.9728 11.2088C12.2844 11.1356 10.4487 11.3735 10.1486 11.4101C9.14247 11.3369 7.9069 10.916 6.45951 10.184L6.33596 10.1108L6.23005 10.2023C4.4826 11.6114 3.49414 13.3315 3.31763 15.1614L3.52944 15.1797L3.51179 15.4176C4.74736 15.6006 6.65368 16.0763 8.6659 17.2841L8.7012 17.3024C8.64824 17.4305 8.63059 17.5769 8.63059 17.7233C8.63059 18.4552 9.19543 19.0408 9.90147 19.0408C9.93677 19.0408 9.98973 19.0408 10.025 19.0408C10.1309 19.48 10.3957 19.8277 10.7664 19.9741C11.0488 20.1021 11.3665 20.0838 11.6842 19.9741C11.8254 20.3949 12.0902 20.706 12.4432 20.8524C12.7433 20.9805 13.0963 20.9805 13.414 20.8524C13.5905 21.4563 14.1377 21.8589 14.7555 21.8589C15.1438 21.8589 15.4792 21.6942 15.744 21.438C15.8852 21.5112 16.4147 21.7857 16.9972 21.7857C17.3502 21.7857 17.7032 21.6759 17.968 21.3831C18.5505 21.4014 19.5036 21.2001 19.7508 20.3583C20.3332 20.3217 21.2334 20.0106 21.4629 18.9859C21.763 18.9676 22.3455 18.8761 22.6808 18.5101C23.0868 18.0709 23.0868 17.5037 22.8926 17.1011C23.2457 16.8998 24.4283 16.4057 28.3468 15.2712L28.541 15.2163Z" fill="#262F76"/>
<path d="M22.3809 18.1988C22.1691 18.4367 21.7278 18.5099 21.4454 18.5282L19.3096 16.4787C19.2213 16.3872 19.1154 16.3323 19.0272 16.4238C18.9389 16.5153 19.0272 16.6617 19.1154 16.7532L21.0571 18.7661C20.8805 19.7726 19.9803 19.8824 19.6803 19.9007L18.3388 18.455C18.2505 18.3635 18.1446 18.272 18.0564 18.3635C17.9681 18.455 18.0564 18.5831 18.1446 18.6746L19.3449 20.1934C19.2037 20.8339 18.4271 20.9254 18.074 20.9437L16.7679 19.5164C16.6796 19.4249 16.5737 19.3517 16.4854 19.4249C16.3972 19.5164 16.4678 19.6445 16.556 19.736L17.6328 21.0901C17.1562 21.5659 16.2913 21.1999 16.0089 21.0718C16.0089 21.0535 16.0265 21.0352 16.0265 21.0352C16.0442 20.9986 16.0618 20.962 16.0795 20.9254C16.1148 20.8522 16.1324 20.779 16.1501 20.7058C16.1501 20.6875 16.1501 20.6692 16.1677 20.6509C16.1854 20.5594 16.1854 20.4862 16.1854 20.3947C16.1854 19.553 15.497 18.8759 14.7027 18.9308C14.738 18.1988 14.4026 17.5584 13.8378 17.3205C13.4848 17.1741 13.0788 17.1924 12.6905 17.3937C12.6552 17.3205 12.6199 17.2656 12.5846 17.1924C12.5846 17.1924 12.5846 17.1741 12.5669 17.1741C12.5493 17.1558 12.5316 17.1375 12.5316 17.1192C12.408 16.9545 12.2315 16.8081 12.055 16.7349C11.6844 16.5702 11.2431 16.6251 10.8724 16.8813C10.8194 16.8081 10.7488 16.7532 10.6782 16.6983C10.6782 16.6983 10.6782 16.6983 10.6606 16.68C10.6253 16.6434 10.59 16.6251 10.5547 16.6068C10.3605 16.4787 10.1311 16.4055 9.9016 16.4055C9.83099 16.4055 9.74274 16.4238 9.67213 16.4238C9.65448 16.4238 9.63683 16.4238 9.63683 16.4238C9.56623 16.4421 9.51327 16.4604 9.44267 16.4787C9.42502 16.4787 9.38971 16.497 9.37206 16.5153C9.31911 16.5336 9.26616 16.5702 9.2132 16.6068C9.1779 16.6251 9.16025 16.6434 9.1426 16.6617C9.12495 16.68 9.08965 16.6983 9.072 16.7349C9.01904 16.7715 8.98374 16.8264 8.94844 16.863C8.94844 16.8813 8.93079 16.8813 8.93079 16.8996L8.87783 16.8813C7.04213 15.7834 5.29467 15.271 4.0238 15.0514C3.93554 15.0331 3.67077 15.0148 3.58252 15.0148C3.79433 13.4045 4.67688 11.8124 6.19488 10.5498C6.24783 10.5864 6.51259 10.6962 6.56555 10.7328C7.94233 11.4099 9.1426 11.7941 10.1311 11.8673H10.1487H10.1664C10.8901 11.7758 11.9844 11.6478 12.6022 11.6478L10.9077 13.4411L10.996 13.5875C11.2784 14.0998 11.755 14.2462 12.2139 14.2462C12.8493 14.2462 13.4671 13.9534 13.5201 13.9351L13.5554 13.9168C13.5554 13.9168 14.2261 13.4411 15.1263 12.8006L15.3734 12.6176C16.2383 12.0137 16.8561 12.5444 16.8914 12.5627C16.9267 12.5993 20.6158 15.6004 21.9573 16.7532L22.4691 17.1741C22.6457 17.4303 22.6986 17.8512 22.3809 18.1988Z" fill="white"/>
<path d="M22.628 16.7533L22.2397 16.4239C20.8982 15.2711 17.2092 12.2517 17.1739 12.2334C16.8738 11.9589 16.0442 11.6113 15.144 12.2517L14.8969 12.4347L15.0204 12.6177L14.8969 12.4347C14.0673 13.0203 13.4495 13.4595 13.3436 13.5327C13.2024 13.6059 12.0198 14.1182 11.4902 13.4961L13.2377 11.5747L13.679 11.0989C13.6966 11.0806 15.2146 9.43367 18.3212 10.8793C20.6688 11.9589 22.9987 12.0138 25.1345 11.0257C25.311 10.9525 25.717 10.7329 25.8758 10.6414C27.2526 11.8309 28.0999 13.2948 28.3293 14.7953C24.3049 15.9665 22.9634 16.5337 22.628 16.7533Z" fill="white"/>
</g>
<defs>
<clipPath id="clip0">
<rect width="26" height="18.72" fill="white" transform="translate(3 7)"/>
</clipPath>
</defs>
</svg>
