<svg width="32" height="32" viewBox="0 0 32 32" fill="none" xmlns="http://www.w3.org/2000/svg">
<rect width="32" height="32" rx="16" fill="#F9F9F9"/>
<path fill-rule="evenodd" clip-rule="evenodd" d="M16 6C10.4828 6 6 10.4828 6 16C6 21.5172 10.4828 26 16 26C21.5172 26 26 21.5172 26 16C26 10.4828 21.5603 6 16 6ZM21.6034 19.4483C21.6034 19.9224 21.2155 20.3103 20.7414 20.2672C20.3103 20.2241 19.9655 19.8362 19.9655 19.4052V17.25C19.9655 16.9914 19.75 16.819 19.5345 16.819H17.2931C17.0345 16.819 16.8621 17.0345 16.8621 17.25V19.9224C16.8621 20.3966 16.4741 20.7845 16 20.7414C15.569 20.6983 15.2241 20.3103 15.2241 19.8793V17.25C15.2241 16.9914 15.0086 16.819 14.7931 16.819H12.5517C12.2931 16.819 12.1207 17.0345 12.1207 17.25V19.4483C12.1207 19.9224 11.7328 20.3103 11.2586 20.2672C10.8276 20.2241 10.4828 19.8362 10.4828 19.4052V12.5517C10.4828 12.0776 10.8707 11.6897 11.3448 11.7328C11.7759 11.7759 12.1207 12.1638 12.1207 12.5948V14.75C12.1207 15.0086 12.3362 15.181 12.5517 15.181H14.7931C15.0517 15.181 15.2241 14.9655 15.2241 14.75V12.0776C15.2241 11.6034 15.6121 11.2155 16.0862 11.2586C16.5172 11.3017 16.8621 11.6897 16.8621 12.1207V14.75C16.8621 15.0086 17.0776 15.181 17.2931 15.181H19.5345C19.7931 15.181 19.9655 14.9655 19.9655 14.75V12.5948C19.9655 12.1638 20.3103 11.7328 20.7414 11.7328C21.2155 11.6897 21.6034 12.0776 21.6034 12.5517V19.4483Z" fill="#EC0928"/>
</svg>
