<svg width="32" height="32" viewBox="0 0 32 32" fill="none" xmlns="http://www.w3.org/2000/svg">
<rect width="32" height="32" rx="16" fill="#F9F9F9"/>
<path fill-rule="evenodd" clip-rule="evenodd" d="M8.42716 19.0883C7.12078 19.0883 6.17729 17.9996 6.17729 16.3304C6.17729 14.6611 7.12078 13.5725 8.42716 13.5725C9.73353 13.5725 10.677 14.7337 10.677 16.3304C10.677 17.9996 9.80611 19.0883 8.42716 19.0883ZM8.42716 21.193C10.8948 21.193 12.8543 19.1609 12.8543 16.3304C12.8543 13.5725 11.0399 11.4678 8.42716 11.4678C5.95956 11.4678 4 13.4999 4 16.3304C4.07258 19.1609 5.88699 21.193 8.42716 21.193Z" fill="#6E0AD6"/>
<path fill-rule="evenodd" clip-rule="evenodd" d="M14.6687 17.4914H18.8781C19.1684 17.4914 19.3136 17.3463 19.3136 17.056V15.677C19.3136 15.3867 19.1684 15.2416 18.8781 15.2416H16.0476V9.43546C16.0476 9.14515 15.9025 9 15.6122 9H14.2332C13.9429 9 13.7978 9.14515 13.7978 9.43546V16.5479C13.7252 17.2011 14.0881 17.4914 14.6687 17.4914Z" fill="#8CE563"/>
<path fill-rule="evenodd" clip-rule="evenodd" d="M20.4022 21.0479L22.9423 18.0722L25.4099 21.0479C25.6277 21.3382 25.918 21.3382 26.1357 21.1205L27.1518 20.2495C27.3695 20.0318 27.4421 19.7415 27.2243 19.5238L24.3939 16.3304L26.8615 13.4999C27.0792 13.2822 27.0792 12.9919 26.7889 12.7742L25.8454 11.9032C25.6277 11.6855 25.3373 11.6855 25.1196 11.9758L22.8698 14.6612L20.5473 11.9758C20.3296 11.7581 20.0393 11.6855 19.8215 11.9032L18.8781 12.7742C18.6603 12.9919 18.5877 13.2822 18.8781 13.4999L21.4182 16.3304L18.6603 19.4512C18.4426 19.7415 18.4426 19.9592 18.7329 20.177L19.6764 21.0479C19.8941 21.3382 20.1844 21.3382 20.4022 21.0479Z" fill="#F28000"/>
</svg>
