<svg width="32" height="32" viewBox="0 0 32 32" fill="none" xmlns="http://www.w3.org/2000/svg">
<rect width="32" height="32" rx="16" fill="#F9F9F9"/>
<path d="M15.8281 11.3279C16.5034 11.3279 17.0437 10.7876 17.0437 10.0447C17.0437 9.36937 16.5034 8.8291 15.8281 8.8291C15.0852 8.8291 14.5449 9.36937 14.5449 10.0447C14.5449 10.7876 15.0852 11.3279 15.8281 11.3279Z" fill="#2262CC"/>
<path d="M21.0976 6.87164C17.856 5.31836 13.8039 5.92617 10.9 8.01972C6.57779 11.1263 5.76739 17.4069 8.87395 21.7291C10.7649 24.2279 14.0741 25.3084 17.1131 25.2409C19.4768 25.1733 22.1781 24.4305 24.0691 22.8772L23.7314 22.472C21.6379 24.2279 16.978 25.0383 14.0741 24.0253C11.1701 23.0122 9.34668 20.5135 8.67134 17.6095C8.13107 14.9757 8.60381 12.3419 10.1571 10.1133C12.5883 6.80411 16.7079 5.7911 20.2872 7.68205C24.2717 9.64053 25.8925 15.1108 23.0561 18.7576C21.9755 20.0408 19.8144 21.2564 18.1936 20.1083C17.2482 19.4329 17.3157 18.2173 17.3157 17.1368L17.4508 12.477H13.7364V13.2874H15.2897C15.2221 14.9082 15.1546 18.0823 15.1546 18.1498C15.1546 19.5005 15.6273 21.6616 19.0716 21.3239C22.3807 21.0538 25.4198 18.4875 25.8925 15.3134C26.4328 11.6665 24.3392 8.42492 21.0976 6.87164Z" fill="#2262CC"/>
</svg>
